<svg height="1406" width="720" xmlns="http://www.w3.org/2000/svg">
<rect height="1406" fill="#555" width="720"></rect>
<text fill="#7f7" font-family="Courier New" font-size="12" xml:space="preserve">
<tspan x="10" y="26">16 megabytes installed</tspan>
<tspan x="10" y="42"></tspan>
<tspan x="10" y="58">node_modules</tspan>
<tspan x="10" y="74">└─┬ node-session@1.2.1 </tspan>
<tspan x="10" y="90">  ├── cookie@0.1.5 </tspan>
<tspan x="10" y="106">  ├── cookie-signature@1.0.6 </tspan>
<tspan x="10" y="122">  ├── dot-access@0.0.5 </tspan>
<tspan x="10" y="138">  ├── encrypter@1.0.0-beta </tspan>
<tspan x="10" y="154">  ├─┬ fs-extra@0.24.0 </tspan>
<tspan x="10" y="170">  │ ├── graceful-fs@4.1.11 </tspan>
<tspan x="10" y="186">  │ ├── jsonfile@2.4.0 </tspan>
<tspan x="10" y="202">  │ ├── path-is-absolute@1.0.1 </tspan>
<tspan x="10" y="218">  │ └─┬ rimraf@2.6.1 </tspan>
<tspan x="10" y="234">  │   └─┬ glob@7.1.1 </tspan>
<tspan x="10" y="250">  │     ├── fs.realpath@1.0.0 </tspan>
<tspan x="10" y="266">  │     ├─┬ inflight@1.0.6 </tspan>
<tspan x="10" y="282">  │     │ └── wrappy@1.0.2 </tspan>
<tspan x="10" y="298">  │     ├── inherits@2.0.3 </tspan>
<tspan x="10" y="314">  │     ├─┬ minimatch@3.0.3 </tspan>
<tspan x="10" y="330">  │     │ └─┬ brace-expansion@1.1.7 </tspan>
<tspan x="10" y="346">  │     │   ├── balanced-match@0.4.2 </tspan>
<tspan x="10" y="362">  │     │   └── concat-map@0.0.1 </tspan>
<tspan x="10" y="378">  │     └── once@1.4.0 </tspan>
<tspan x="10" y="394">  ├── lodash@3.10.1 </tspan>
<tspan x="10" y="410">  ├── on-headers@1.0.1 </tspan>
<tspan x="10" y="426">  ├─┬ proxy-addr@1.1.4 </tspan>
<tspan x="10" y="442">  │ ├── forwarded@0.1.0 </tspan>
<tspan x="10" y="458">  │ └── ipaddr.js@1.3.0 </tspan>
<tspan x="10" y="474">  ├─┬ uid-safe@2.1.4 </tspan>
<tspan x="10" y="490">  │ └── random-bytes@1.0.0 </tspan>
<tspan x="10" y="506">  └─┬ waterline@0.10.31 </tspan>
<tspan x="10" y="522">    ├─┬ anchor@0.11.5 </tspan>
<tspan x="10" y="538">    │ ├─┬ @mapbox/geojsonhint@1.2.1 </tspan>
<tspan x="10" y="554">    │ │ ├─┬ chalk@1.1.3 </tspan>
<tspan x="10" y="570">    │ │ │ ├── ansi-styles@2.2.1 </tspan>
<tspan x="10" y="586">    │ │ │ ├── escape-string-regexp@1.0.5 </tspan>
<tspan x="10" y="602">    │ │ │ ├─┬ has-ansi@2.0.0 </tspan>
<tspan x="10" y="618">    │ │ │ │ └── ansi-regex@2.1.1 </tspan>
<tspan x="10" y="634">    │ │ │ ├── strip-ansi@3.0.1 </tspan>
<tspan x="10" y="650">    │ │ │ └── supports-color@2.0.0 </tspan>
<tspan x="10" y="666">    │ │ ├─┬ concat-stream@1.4.10 </tspan>
<tspan x="10" y="682">    │ │ │ ├─┬ readable-stream@1.1.14 </tspan>
<tspan x="10" y="698">    │ │ │ │ ├── core-util-is@1.0.2 </tspan>
<tspan x="10" y="714">    │ │ │ │ ├── isarray@0.0.1 </tspan>
<tspan x="10" y="730">    │ │ │ │ └── string_decoder@0.10.31 </tspan>
<tspan x="10" y="746">    │ │ │ └── typedarray@0.0.6 </tspan>
<tspan x="10" y="762">    │ │ ├─┬ jsonlint-lines@1.7.1 </tspan>
<tspan x="10" y="778">    │ │ │ ├── JSV@4.0.2 </tspan>
<tspan x="10" y="794">    │ │ │ └─┬ nomnom@1.8.1 </tspan>
<tspan x="10" y="810">    │ │ │   ├─┬ chalk@0.4.0 </tspan>
<tspan x="10" y="826">    │ │ │   │ ├── ansi-styles@1.0.0 </tspan>
<tspan x="10" y="842">    │ │ │   │ ├── has-color@0.1.7 </tspan>
<tspan x="10" y="858">    │ │ │   │ └── strip-ansi@0.1.1 </tspan>
<tspan x="10" y="874">    │ │ │   └── underscore@1.6.0 </tspan>
<tspan x="10" y="890">    │ │ ├── minimist@1.1.1 </tspan>
<tspan x="10" y="906">    │ │ └── text-table@0.2.0 </tspan>
<tspan x="10" y="922">    │ ├── @sailshq/lodash@3.10.2 </tspan>
<tspan x="10" y="938">    │ └── validator@4.4.0 </tspan>
<tspan x="10" y="954">    ├── async@1.2.1 </tspan>
<tspan x="10" y="970">    ├── bluebird@2.9.34 </tspan>
<tspan x="10" y="986">    ├── deep-diff@0.3.4 </tspan>
<tspan x="10" y="1002">    ├── lodash@3.9.3 </tspan>
<tspan x="10" y="1018">    ├─┬ prompt@0.2.14 </tspan>
<tspan x="10" y="1034">    │ ├── pkginfo@0.4.0 </tspan>
<tspan x="10" y="1050">    │ ├─┬ read@1.0.7 </tspan>
<tspan x="10" y="1066">    │ │ └── mute-stream@0.0.7 </tspan>
<tspan x="10" y="1082">    │ ├── revalidator@0.1.8 </tspan>
<tspan x="10" y="1098">    │ ├─┬ utile@0.2.1 </tspan>
<tspan x="10" y="1114">    │ │ ├── async@0.2.10 </tspan>
<tspan x="10" y="1130">    │ │ ├── deep-equal@1.0.1 </tspan>
<tspan x="10" y="1146">    │ │ ├── i@0.3.5 </tspan>
<tspan x="10" y="1162">    │ │ ├─┬ mkdirp@0.5.1 </tspan>
<tspan x="10" y="1178">    │ │ │ └── minimist@0.0.8 </tspan>
<tspan x="10" y="1194">    │ │ └── ncp@0.4.2 </tspan>
<tspan x="10" y="1210">    │ └─┬ winston@0.8.3 </tspan>
<tspan x="10" y="1226">    │   ├── async@0.2.10 </tspan>
<tspan x="10" y="1242">    │   ├── colors@0.6.2 </tspan>
<tspan x="10" y="1258">    │   ├── cycle@1.0.3 </tspan>
<tspan x="10" y="1274">    │   ├── eyes@0.1.8 </tspan>
<tspan x="10" y="1290">    │   ├── isstream@0.1.2 </tspan>
<tspan x="10" y="1306">    │   ├── pkginfo@0.3.1 </tspan>
<tspan x="10" y="1322">    │   └── stack-trace@0.0.9 </tspan>
<tspan x="10" y="1338">    ├── switchback@2.0.2 </tspan>
<tspan x="10" y="1354">    ├─┬ waterline-criteria@0.11.2 </tspan>
<tspan x="10" y="1370">    │ └── lodash@2.4.2 </tspan>
<tspan x="10" y="1386">    └── waterline-schema@0.1.20</tspan>
</text>
</svg>
